<?xml version="1.0" encoding="utf-8"?>
<!-- Generator: Adobe Illustrator 19.2.1, SVG Export Plug-In . SVG Version: 6.00 Build 0)  -->
<svg version="1.1" id="Capa_1" xmlns="http://www.w3.org/2000/svg" xmlns:xlink="http://www.w3.org/1999/xlink" x="0px" y="0px"
	 viewBox="0 0 200 225" style="enable-background:new 0 0 200 225;" xml:space="preserve">
<style type="text/css">
	.st0{fill:#E6BC45;}
</style>
<g>
	<path class="st0" d="M0.6,50.5c4-6.1,7.4-12.7,13-17.5c1.1-0.9,2-1.9,3.4-2.3c3.7-1.3,6.1-4.1,6.3-7.9c0.3-6.7,5.2-9.6,9.8-12.8
		c1.4-1,3.2-1.1,4.9-1C45.3,9,52.3,7.6,59.2,4.6c6.7-2.9,14-3,21.3-2.9c2.3,0,3.5,1.9,2.9,4.4c-0.3,1.3-0.9,2.6-1.3,3.9
		c-0.9,2.9-0.2,4.7,2.6,6.1c1.2,0.6,2.4,1.1,3.7,1c4.5-0.5,8,1.3,11.2,4.3c0.9,0.9,2,1.6,3.1,2.2c4.5,2.6,7.4,1.7,9.4-3.1
		c0.9-2.3,2.6-2.9,4.7-2.6c1,0.1,2.1,0.3,2.8,0.9c4.4,3.2,9.9,3.1,14.8,5c1.8,0.7,3.5,0,5.2-0.5c2.8-0.9,5.4,0.1,6,3
		c1.3,7,5.3,12.9,7.9,19.4c1.9,4.8,3.8,9.6,5.6,14.4c1.9,5,5.1,10,9.2,14c3.2,3.1,5.8,6.9,8,10.6c2.1,3.7,5.6,4.9,9.5,4
		c3.7-0.9,7.4-2.1,11-3.4c2.1-0.8,2.8-0.2,2.7,1.8c-0.3,3.2-1.1,6.5-3.2,8.8c-3.2,3.5-5.2,7.7-8,11.4c-0.9,1.2-1.8,2.4-3.1,3.2
		c-7.6,4.2-12.4,11.6-18.8,17.1c-1.9,1.7-2.7,4.7-2.9,7.2c-0.4,4.3-0.1,8.7,2.6,12.5c1.2,1.6,1.5,3.4,1.4,5.3
		c-0.2,2.8-0.3,5.5-0.7,8.3c-0.5,3.8-2.2,6.8-6.1,8c-4,1.3-6.6,4.6-9.6,7.2c-1.3,1.1-1.5,2.8-1,4.4c1.7,5.7,1,10.6-4.3,14.1
		c-1.3,0.9-1.4,2.5-1.7,4c-0.7,3.7-2.4,6.9-5.1,9.5c-1.5,1.5-2.5,3.2-3.6,5c-3.2,5-7.4,8.7-13.8,9c-4.2,0.2-8.4,0.8-12.5,2.4
		c-2.9,1.2-5.7-0.1-6.1-3.2c-1-7.7-4.8-14.2-8.3-20.8c-2.1-4-3.3-8.1-3.3-12.8c0-4.5-2.2-8.6-4.4-12.4c-3.4-5.7-3.9-11.8-0.7-17.2
		c6.1-10.6,3.5-19.6-3.2-28.5c-0.9-1.2-1.6-2.5-2.6-3.6c-3.1-3.6-4-7.3-1.7-11.9c2.2-4.4-0.4-9.1-5.6-10c-3.5-0.6-6.3-2.2-8.8-4.5
		c-2-1.8-4.2-2.5-6.8-1.9c-2.4,0.6-4.9,0.8-7.2,1.7c-6.7,2.4-13.7,2.1-20.5,2.2c-6.6,0.1-11.9-3.9-15.8-9.2
		c-2.5-3.3-4.9-6.7-8.2-9.3c-4-3.2-5.3-7.8-3.6-12.7c2.3-6.5,0.7-12.7-1.5-18.8C0.6,51.3,0.6,50.9,0.6,50.5z"/>
</g>
</svg>
