<?xml version="1.0" encoding="utf-8"?>
<!-- Generator: Adobe Illustrator 19.2.1, SVG Export Plug-In . SVG Version: 6.00 Build 0)  -->
<svg version="1.1" xmlns="http://www.w3.org/2000/svg" xmlns:xlink="http://www.w3.org/1999/xlink" x="0px" y="0px"
	 viewBox="0 0 184.3 159.1" style="enable-background:new 0 0 184.3 159.1;" xml:space="preserve">
<style type="text/css">
	.st0{fill:url(#SVGID_1_);}
</style>
<g id="Capa_0_xA0_Imagen_1_">
</g>
<g id="Capa_7_xA0_Imagen_1_">
	<g>
		<linearGradient id="SVGID_1_" gradientUnits="userSpaceOnUse" x1="91.1052" y1="5.8289" x2="92.1052" y2="150.8289">
			<stop  offset="0" style="stop-color:#CCE5FC"/>
			<stop  offset="1" style="stop-color:#8DABD4"/>
		</linearGradient>
		<path class="st0" d="M92.8,0C92.9,0,93,0,93,0c1.5,2.6,2.9,5.1,4.4,7.7c6.3,11,12.7,22.1,19,33.1c5.9,10.3,11.8,20.5,17.7,30.7
			c5.4,9.4,10.8,18.7,16.1,28.1c5.3,9.3,10.7,18.6,16,27.8c5.7,9.9,11.4,19.8,17.1,29.7c0.3,0.5,1,1.1,0.7,1.7
			c-0.3,0.6-1.2,0.3-1.8,0.3c-43.1,0-86.2,0-129.2,0c-17.6,0-35.3,0-52.9,0c0-0.2,0-0.3,0-0.5c0.9-1.1,1.5-2.3,2.2-3.5
			c5.9-10,11.7-20,17.5-30c4.2-7.3,8.5-14.6,12.8-21.8C39,92.3,45.4,81.3,51.8,70.4c4.8-8.2,9.6-16.5,14.5-24.7
			C73,34.1,79.7,22.5,86.4,11C88.6,7.3,90.7,3.6,92.8,0z M105,137C105,137,105,137,105,137c13.3,0,26.6,0.1,39.8,0
			c0.7,0,1.7,0.4,2-0.3c0.3-0.6-0.4-1.3-0.8-1.9c-5.7-9.8-11.5-19.6-17.2-29.4c-11.6-19.8-23.3-39.6-34.9-59.4
			c-0.7-1.2-0.8-1.3-1.6,0c-3.2,5.4-6.4,10.7-9.6,16.1C76.3,73,69.8,84,63.4,94.9c-8,13.5-16,27-24,40.5c-0.8,1.3-0.8,1.4,0.8,1.4
			c8.7,0.1,17.4,0.1,26,0.2C79.1,137.1,92,137,105,137z"/>
	</g>
</g>
</svg>
