<?xml version="1.0" encoding="utf-8"?>
<!-- Generator: Adobe Illustrator 19.2.1, SVG Export Plug-In . SVG Version: 6.00 Build 0)  -->
<svg version="1.1" id="Capa_1" xmlns="http://www.w3.org/2000/svg" xmlns:xlink="http://www.w3.org/1999/xlink" x="0px" y="0px"
	 viewBox="0 0 282 415" style="enable-background:new 0 0 282 415;" xml:space="preserve">
<style type="text/css">
	.st0{fill:#5B9C98;}
</style>
<g>
	<path class="st0" d="M7.8,77.6c-3-0.7-5.7-1.9-4.6-5.6c0.9-3,3.3-2.7,5.7-1.7c0.2-1.8-1.2-2.1-2-2.8c-2-1.6-2.4-3.1,0-4.7
		c2.7-1.9,5.1-4.2,8.3-5.4c2.5-0.9,4.6-0.4,7.2,0.2c9.5,2.5,19.3,7,29.1,3c9.1-3.7,17.6-0.1,26.4-0.1c3.1,0,5.7,2.3,4.1-4.2
		c-1.5-6.4-3.8-5.1-7.6-3.9c-1.7,0.5-3.9,1.5-4.8-0.8c-0.7-1.8,1.1-2.9,2.4-3.9c5.2-3.9,13.6-3.8,19,0c3.8,2.6,7.4,0.3,10.9-0.8
		c5.3-1.6,10.9,2.2,10.4,7.7c-0.2,2.1-2.2,2.1-3.7,2.8c-2.3,1-6.4,0.8-5.6,4.2c0.6,2.7,4.4,1.2,6.7,1.4c1.1,0.1,2.3-0.2,3.5-0.4
		c5.9-0.8,10.6-5.3,17.1-4.7c-1.4-2.4-3.1-1.7-4.4-1.9c-4.8-0.4-5.8-4.4-6.5-7.7c-0.6-3.1,2.6-4.5,5.1-5.3c3.8-1.3,7.7-2.1,11.6-2.9
		c1.1-0.2,2.9-0.2,3.3,0.4c3.3,5.1,7.6,1.3,11.4,1.6c4.2,0.4,8.2,1,12-1.7c2.2-1.5,5.1-2.1,7.7-1.6c6.8,1.5,13.9,2.1,20.1,5.7
		c3,1.8,6.2,3.2,9.4,4.5c2.1,0.8,4.8,1.4,5,4.3c0.2,2.9-2.1,4.4-4.2,5.7c-1.8,1.1-4.2,0.7-1.8,4.5c1.9,3-2.7,5.5-5,4.8
		c-6.2-1.8-12.6-0.7-18.8-1.9c-2.7-0.5-3.4-1.6-3.7-4.9c-0.3-3.5-3.9-7-6.8-9.8c-0.9-0.9-5.2-0.3-4.9,3c0.3,3.5-1.6,4.7-4.1,6
		c-1.6,0.8-3.5,1.8-3.1,4c0.3,2,2.3,2.2,3.8,2.7c1.5,0.5,3.7,0.2,3.8,2.4c0.1,2.2-1.9,3-3.6,3.7c-3.3,1.4-6.7,1.8-10.2,0.6
		c-5.7-1.8-17.1,4.1-18.7,9.8c-1,3.5,1.4,5.2,4.1,5.7c6.1,1.1,11.2,5.2,17.5,5.7c2.2,0.2,3.4,1.9,3.9,4.1c0.3,1.5,1.5,2.8,2.7,1.4
		c2.2-2.6,5.9-5.6,5.3-8.7c-1-5.3,2.4-9.6,1.6-14.7c-0.4-2.6,2.1-3.5,4.2-4.2c6.3-2.2,12.2-1.1,17.5,2.7c3.3,2.3,6.5,3.9,10.6,2
		c2.1-1,3.8,0.2,4.8,1.7c2.5,3.8,6.2,5.2,10.4,6.3c7.2,1.8,8,3,7.5,10.6c-0.2,2.5,1.8,2.9,3.1,4c1.7,1.4,4.7,2.2,3.3,5.2
		c-1.2,2.6-3.8,3.5-6.4,2.7c-2.9-0.9-5.5-0.4-8.2,0.5c-3.2,1-6.3,1.3-5.8-3.7c0.1-1.2-0.1-2.1-1.3-2.2c-3.5-0.3-7.1-0.7-9.6,2.6
		c-0.8,1.1-1.8,2.1-1.1,3.6c0.7,1.4,2.1,1.5,3.4,1.4c0.7,0,1.3-0.2,2-0.3c2.4-0.3,5.4-1.4,6.4,1.9c0.9,2.9-1.8,4.2-3.8,5.1
		c-5,2.2-9.7,6.4-15.9,3.4c-0.3-0.1-0.7-0.2-1,0c-5.9,3.7-13.1,6.8-16.3,12.7c-4.2,7.9-9.4,14.3-16.9,18.4c-4.2,2.3-5.2,4.6-3.7,8.7
		c0.2,0.5,0.2,1,0.3,1.5c0.5,2.1,1.2,4.3-1.3,5.8c-2.4,1.4-4.7,0.9-6.4-0.9c-3.1-3.3-6.7-3.8-10.9-3c-2.6,0.5-5.3,0.2-8,0.2
		c-8.8-0.1-13.1,4.4-12.7,13.3c0.1,2.4,0.5,4.3,3.2,4.9c2.5,0.5,4.7,0.3,6.1-2.1c1.4-2.3,3-4.4,5.6-5.5c1.7-0.7,3.6-1.4,5.2,0.1
		c1.4,1.2,0.5,2.8,0.1,4.2c-1.4,5.8-0.9,6.6,4.9,8.1c3.5,0.9,3.7,3.1,3.2,6.1c-1,5.6-0.3,5.5,5.3,4.8c5.3-0.7,9.5-2.8,14-5.4
		c4.2-2.5,9.1-1.9,13.7-1.1c2.6,0.4,5.4,1.2,7.9,0.5c7.4-2,14.1-0.6,20.5,3.4c2.5,1.6,5.3,1.7,8.2,1c7.5-1.6,13.5,0.4,17.5,7.2
		c2.2,3.7,5.3,4.8,9.6,5.8c12.7,2.9,26.1,1.2,38.4,6.8c7.1,3.2,9.7,7.7,4.8,13.7c-4.1,5-6.4,11.2-10.6,16.2
		c-2.3,2.6-2.7,7.1-3.4,10.8c-2,10.6-7,18.5-17.5,22.4c-4.4,1.6-7.6,4.1-6.1,9.7c0.5,2-0.3,4.1-1.7,5.5c-2.7,2.8-4.1,6.3-4.5,9.9
		c-0.7,7.8-5.2,13.9-8.8,20.4c-3.3,5.9-7.4,11-13.8,13.9c-2.5,1.2-4.6,3.3-6.9,4.9c-3,2.1-4.1,4.6-2.5,8.1c1.3,2.9,0.5,5.8-0.2,8.8
		c-4.3,18.5,0.3,34.5,14.1,47.7c1.4,1.4,3.6,2.8,2.2,4.9c-1.7,2.6-4.3,1.8-6.7,0.7c-15.4-6.9-26.8-17.6-32.1-34.1
		c-0.9-2.7-2.2-5.2-3.3-7.8c-1.6-3.6-2.6-7-1.5-11.1c0.9-3.6,0.3-7.2-1.5-10.7c-5.8-11.2-8.7-22.7-5.7-35.6c1.7-7,1.2-14.6,1.6-21.9
		c0.2-3.5,0.7-6.9,2.2-10.2c2.4-5.3,0.1-13.5-4.6-16.9c-2.2-1.5-4.3-3.3-6.7-4.4c-10.4-4.8-14.2-14.5-17.9-24.2
		c-1.3-3.5-1.7-7.4-3.3-11c-1.3-3-0.7-5.9,1.5-8.4c1.3-1.5,2.7-2.9,4.1-4.4c1.5-1.6,3.1-3.3,2-5.7c-1.1-2.6-3.3-2.1-5.6-1.8
		c-5.7,0.7-9.8-2.8-13.6-6.3c-2.7-2.4-5.5-3.9-9-3.4c-11.7,1.6-21.1-5.1-31.3-8.7c-2.6-0.9-4.8-3-5.3-5.6
		c-1.5-7.6-8.1-12.1-11.3-18.7c-0.9-1.7-2.9-2.1-4.7-2.6c-5-1.4-9.1-5.3-8.4-10.3c1.9-13.4-4.4-24.8-7.6-37c-1-3.9-2.7-7.5-4-11.3
		c-0.8-2.3-2.2-3.5-4.5-4.2c-1.6-0.4-3.1-1.2-4.5-2.1c-2.2-1.3-3.8-5.1-6.4-4c-3.6,1.5-7.5,2.9-10.1,6.1c-1.1,1.4-2.1,3.3-4.3,2.7
		c-2.3-0.6-1.4-2.6-1.3-4.2c0.1-1.1-0.7-1.7-1.6-2.3C1.9,88.5,1.3,84.4,7.8,77.6z"/>
	<path class="st0" d="M212,46.8c0.2-12.6-4.8-17.3-15.7-15.4c-6.8,1.2-13.2,0.6-19.6-1.9c-5.2-2-9.7-2.1-14.6,2.1
		c-5.3,4.5-12,6.5-19.1,2.6c-2.2-1.2-4.5-1-6.8-0.4c-2.9,0.8-5.8,1.6-8.7,2.3c-1.1,0.3-2.3,0.2-3.5,0.3c0.3-4-4.5-5.5-4.6-8.7
		c-0.1-3.5,3.6-4.5,6.7-4.6c2.7-0.1,4.6-1.2,6.7-2.8c3.6-2.7,7.6-4.2,12.1-2.1c3,1.4,5.2,0,7.2-2c5.7-5.7,13.9-6.9,20.3-11.4
		c1.8-1.2,4.2-0.7,6.3-0.1c3.6,1.2,7.4,2.1,11,3.4c3.9,1.4,7.5,1.6,11.5,0c4.2-1.7,8.9-0.3,13.3,0.2c2.9,0.4,5.5,1,6.9-2.7
		c0.9-2.2,3.5-2.2,5.6-2.7c7.8-1.8,15.6-0.4,23.3,0c3,0.2,6,1.1,7.6,4.1c1,1.8,2.6,1.9,4.3,1.9c2.3,0,4.7-0.1,7,0
		c1.4,0.1,3.3-0.3,3.8,1.6c0.4,1.6-1.5,1.9-2.5,2.7c-1.5,1.1-3,2.1-4.4,3.2c-2.7,2.1-3.6,4.1-0.5,6.8c3,2.6,0.2,3.8-1.6,5.2
		c-1.1,0.8-3.3,0.8-3.1,2.7c0.2,1.5,2,1.4,3.3,1.8c3.8,1,3.3,2.9,1.2,5.3c-2.6,2.9-5.8,4.4-9.6,4.9c-4.6,0.7-8.7,2.2-11.7,6
		c-0.4,0.5-1,1-1.5,1.2c-8,2.8-13.2,7.3-12.2,16.9c0.3,2.6-2.6,5.8-5.4,3C218.5,63.4,210,57.1,212,46.8z"/>
	<path class="st0" d="M100.3,41c-2.8,0.1-4.5-0.5-6.1-1.4c-3.6-2.1-7.3-3.2-11.5-2c-0.9,0.3-2.2,0.6-2.7-0.5
		c-0.6-1.5,0.9-1.9,1.8-2.5c1-0.6,2-1.4,3-1.7c6.4-1.6,12.5-4.2,18.6-6.5c4.6-1.7,6-0.1,5,4.7c-0.4,2,0.8,1.8,1.9,2
		c1.3,0.3,2.8,0.5,2.9,2.2c0.1,1.8-1.2,2.6-2.7,3.1C106.9,39.6,103.3,40.7,100.3,41z"/>
	<path class="st0" d="M164.4,182.1c-2,0-2.9,0-3.9,0c-1.7-0.1-3.5-0.3-3.9-2.3c-0.5-2.1,0.9-3.4,2.6-4.3c3.1-1.5,6.3-2,9.6-0.8
		c1.6,0.6,3.4,1.1,3.5,3c0.1,2.2-1.6,3.2-3.4,3.6C167.1,181.9,165.3,182,164.4,182.1z"/>
	<path class="st0" d="M142.3,170.7c3.4-0.1,6.5,1.5,9.7,2.2c1.4,0.3,3.4,0.2,3.3,2.3c-0.1,2.1-2,3.7-3.6,3.3
		c-4.9-1.1-9.8-2.6-14.5-4.4c-1.5-0.6-0.7-2.4,0.8-2.9C139.3,170.9,140.8,170.9,142.3,170.7z"/>
</g>
</svg>
