<?xml version="1.0" encoding="utf-8"?>
<!-- Generator: Adobe Illustrator 19.2.1, SVG Export Plug-In . SVG Version: 6.00 Build 0)  -->
<svg version="1.1" id="Capa_1" xmlns="http://www.w3.org/2000/svg" xmlns:xlink="http://www.w3.org/1999/xlink" x="0px" y="0px"
	 viewBox="0 0 351 257" style="enable-background:new 0 0 351 257;" xml:space="preserve">
<style type="text/css">
	.st0{fill:#CB83A2;}
</style>
<g>
	<path class="st0" d="M144.7,0c3,1,6,2,9,3c0.8,0.3,1.6,0.7,1.7,1.6c0.1,1.2-0.7,1.8-1.7,2.2c-1.9,0.9-4.1,1.4-5.9,0.8
		c-7.4-2.5-14.3,0.4-21.3,1.7c-0.3,0.1-0.6,0.2-1,0.2c-1.9,0.2-4.6,1.6-5.2-0.8c-0.5-2.1,2.4-2.7,4.2-3.5C130,2.7,136,1.7,141.7,0
		C142.7,0,143.7,0,144.7,0z"/>
	<path class="st0" d="M279.6,108.7c-1.3-4.7,2.2-9.2,2.3-14.3c0-0.6,0.6-1.5,1-1.6c5.2-1.4,5-6.7,7-10.2c1.3-2.3,1.6-5.4-0.8-7.4
		c-2.6-2.2-5.6-1.7-8.5-0.4c-3.1,1.4-3.3,4-2.6,6.8c0.7,2.6,0.8,4.9-1.6,6.8c-2.4,1.9-4.6,1.1-7,0c-8.6-3.6-21,0.6-26,8.5
		c-0.8,1.3-1.8,2.4-2.9,3.5c-2.2,2.1-4.1,4.1-1,7.1c2.7,2.7,5.4,4.7,9.1,1.6c1.3-1.1,2.7-2.2,4.2-2.7c3.2-1.2,6.7,0.6,6.6,3.9
		c-0.2,7-0.4,14.2-6.7,19.2c-0.9,0.7-2,2.3-2.9,1.5c-5.7-5-6.2,1.7-7,3.8c-2.3,5.8-5.5,9.5-11.9,10.8c-3.3,0.7-5.7,3.2-5,7.5
		c1.1,6.1-3.9,10-6.1,14.9c-0.5,1.1-2.1,0.9-3.1,0.2c-1.3-1-2.2-2.3-1.6-3.9c1.4-3.7,0.5-7.3-2.4-9c-3.7-2.1-8.3-1.5-12.2,0.2
		c-3.1,1.4-1.7,3.6,0.5,4.2c3.7,0.9,4.5,3.7,5.5,6.5c1.3,3.8,0.9,7.9,2.5,11.7c0.6,1.5-0.7,2.8-1.6,4c-3.7,4.9-7.5,9.6-9.5,15.8
		c-1.9,5.8-7.3,8-13.1,8.7c-2.8,0.4-4.9-0.8-5.8-3.7c-0.4-1.3-0.9-2.8-2.7-2c-1.5,0.7-2.1,2.2-1.6,3.8c0.6,2.2,2.1,3.7,3.7,5.3
		c6.5,6.4,3.4,13-2.2,17.6c-3.3,2.7-6.8,1.4-9.1-2.3c-1.3-2.1-1.6-6.5-4.7-5.6c-3.5,1,0,4.7-0.6,7.1c-0.6,2.1,1,3.3,2.2,4.7
		c3.1,3.7,6.9,7.1,3.7,12.8c-1,1.8,0.7,3.5,2.4,4.4c2.1,1.1,2.9,2.5,2.3,4.9c-0.9,3.1-2.1,4.1-4.8,1.5c-4.1-4-8.3-7.9-10.6-13.3
		c-1-2.4-3.3-3.3-4.8-5c-0.8-0.9-1.6-2-0.8-3.1c1-1.3,2.5-1.1,3.6-0.1c1.8,1.7,3.3,3.7,5,5.6c0.7,0.7,1.5,1.6,2.6,0.9
		c1.1-0.7,0.6-1.8,0.1-2.7c-2.2-4.3-4.3-8.7-6.9-12.8c-1.6-2.5-2-4.9-1.1-7.6c1.3-3.8,1.6-6.1-3.8-3.9c-3.6,1.5-6.9-1-6.8-4.9
		c0.1-3.4-0.3-7.3-3.6-7.9c-3.3-0.6-7,1.7-8.7,4.8c-1.9,3.4-4.3,5.9-7.8,7.4c-2,0.9-3,2.5-3.9,4.4c-1.9,4.3-3.8,8.6-5.9,12.8
		c-0.9,1.9-2.5,3.3-4.8,2.9c-2.6-0.4-3.9-2.3-3.9-4.6c-0.1-4.3-1.8-7.7-4.7-10.8c-2.7-2.9-3.5-6.5-1.7-10.3c1.6-3.3-0.2-4.7-3.1-4.2
		c-4.2,0.7-5.3-1.5-5.9-4.9c-0.4-2.4-1.4-4.3-4.3-3.7c-6.6,1.4-12.1-1.7-17.6-4.5c-1.7-0.8-3.2-1.8-5.1-1.9
		c-4.6-0.2-9.1-0.6-11.3-5.7c-0.4-1-1.7-1.9-2.9-1c-1.1,0.7-0.4,1.8,0,2.7c2.3,4.6,4.7,8.7,10.9,8.9c4.2,0.1,7.3,3.4,9.9,6.3
		c2.4,2.6,1.3,6-1.4,7.4c-8.4,4.5-15.4,11.4-24.8,14c-5.9,1.6-6.6,1.1-8.2-4.9c-0.4-1.4-0.9-3-1.8-4.1c-5.4-7.1-8-15.8-13.5-22.8
		c-3.8-4.9-5.1-10.2-1.8-15.9c1.7-3-0.1-4.7-2.4-6.2c-2.6-1.6-5.5-1.4-8.3-1.3c-3.6,0.1-5.7-1.6-6.7-4.9c-1-3.4-0.6-6.6,2.6-8.5
		c7.3-4.5,15.3-5.8,23.7-4.9c1.9,0.2,3.4,1.4,4.7,2.8c1.3,1.5,2.3,3.4,4.9,2.3c2.6-1.1,4.1-2.8,4-5.7c0-1.3,0.1-2.7,0.4-4
		c0.5-2.2,1.6-4,3.7-5.1c4.9-2.5,16.3,0.2,19.5,4.6c1.7,2.3,3.3,4.7,5.9,6.1c4.8,2.6,8,1,8.9-4.3c0.4-2.6,1.1-5,4-5.8
		c1-0.3,2-0.5,2.1-1.8c0-1.4-1-2.1-2.1-2.5c-1.3-0.4-2.6-0.4-3.9-0.7c-4.3-1.1-7.4-5.7-5.3-8.5c2.9-3.9,0.4-4.7-2.2-6.3
		c-5.1-3-5.8-7.8-1.8-11.6c0.6-0.6,1.4-1.4,2-1.3c5.9,0.8,12.6-1.5,17.3,4c2.2,2.6,4.9,4.1,8.4,3.3c3.5-0.8,5.8-3,5.2-6.8
		c-0.6-3.9-3.6-4.4-6.9-3.8c-8.6,1.6-14.4-2.1-16.9-10.7c-0.2-0.6-0.3-1.4-0.8-1.8c-6.6-5.5-4.9-13-3.7-19.6
		c1.2-6.2,5.8-10.8,11-14.6c3.3-2.4,6.9-4.4,1.8-8.7c-1.8-1.5-1.3-4,0.1-6c1.4-1.9,2.8-3.8,4.2-5.7c0.9-1.2,2.1-2.2,3.4-1.5
		c5.1,2.9,10.7-0.7,15.8,1.4c0.4,0.2,1.3,0.3,1.5,0c3.6-4.7,10.2-4.6,13.9-8.4c4.4-4.5,9.4-7,15.4-7.4c7.6-0.4,15.1-1,21.6-5.7
		c0.9-0.7,2.4-1.5,3.3-0.7c4.4,3.9,10.1,2.9,15.3,4.1c1.9,0.4,3.6,0.9,4,3.2c0.4,2.3-1.3,3.3-2.9,4.2c-2.3,1.3-4.7,2.6-7.1,3.9
		c-0.8,0.5-2.2,0.8-1.7,2.1c0.4,1.1,1.6,0.9,2.6,0.7c0.3-0.1,0.7-0.1,0.9-0.3c6.6-5.3,13.7-3.5,20.6-1c3.9,1.4,7.2,1.4,11-0.6
		c5.8-3.1,9-1.3,10.3,5.2c0.7,3.9,3.3,5.2,6.5,4.7c5.1-0.8,10.8-1.2,15-3.8c8.5-5.3,16.1-1.9,24,0.5c2.9,0.9,5.7,1.8,8.8,1.7
		c4-0.2,8-0.6,11.2,2.8c0.8,0.8,2.5,1.1,3.8,1.2c7.5,0.6,15.2,0,22.6,0.6c9.2,0.7,19.4-1.9,27,6.3c2.3,2.5,6,1.9,8.9,3
		c4.4,1.7,5,4,1.3,6.6c-2.4,1.7-2.6,5.5-5.8,5.9c-3.5,0.5-4.1-3.6-6.5-4.9c-2.9-1.5-5.6-3.3-7.5,1.3c-0.5,1.2-1.8,2-2.7,3
		c-2.2,2.4-2.8,4.6,0.7,6.4c1.7,0.9,3.3,1.9,2.9,4.2c-0.4,2.1-2.3,2.5-3.9,3.5c-4.3,2.6-10.1,2.5-13.3,7.3c-0.9,1.4-3.1,1.1-4.7,1.2
		c-9,0.9-11.9,4.7-10.5,13.4c1,5.7-1.3,9.9-6.5,12.2c-1.9,0.8-3.3,2.3-4.7,3.7c-1.3,1.3-2.5,3.1-4.6,2.4c-2.3-0.8-1.6-3-1.7-4.8
		C279.5,111.5,279.6,110.3,279.6,108.7z"/>
	<path class="st0" d="M192.7,247.2c-3.1-0.2-6-2.3-8.4-4.8c-2.3-2.5-1.4-5.1,1.2-6.8c4.1-2.8,8.4-5.4,12.1-8.8
		c2.1-1.9,5.5-0.4,4.9,2.1c-1.1,5.3,0.3,11.4-4.4,15.8C196.8,246.1,195.8,247.9,192.7,247.2z"/>
	<path class="st0" d="M249.6,155.5c0.6,7.7-6.6,14.1-12.3,16.9c-1.6,0.8-3.7,1.3-5.1-0.4c-1.5-1.8-1-3.8,0.1-5.6
		c0.6-1,1.3-2.1,2.3-2.6c5.8-2.6,9.8-6.3,10-13.1c0-1.2,0.9-2.3,2.3-2.1c1.1,0.1,1.8,1,2,2C249.3,152.2,249.4,153.9,249.6,155.5z"/>
	<path class="st0" d="M201.9,200.5c0.3-3.9-0.1-6.9,3.2-7.4c3-0.4,3.7,2.2,4.3,4.6c0.7,2.5,1.6,4.9,3.9,6.2c3.2,1.9,3.2,5.2,4,8.2
		c0.3,1.4,0,2.7-1.7,3.2c-1.6,0.4-2.8-0.7-3-2c-0.6-4.1-3.7-5.7-6.8-7.3C203.1,204.5,201.7,202.3,201.9,200.5z"/>
	<path class="st0" d="M239.7,24.9c-2.3-0.2-4.5-0.6-5.2-3.2c-0.7-2.7,1-4.3,3.1-4.9c4.3-1.3,8.8-2.1,12.9,0.6
		c2.1,1.4,2.8,3.4,0.1,4.4C247.1,23.3,243.3,24,239.7,24.9z"/>
</g>
</svg>
