<?xml version="1.0" encoding="utf-8"?>
<!-- Generator: Adobe Illustrator 19.2.1, SVG Export Plug-In . SVG Version: 6.00 Build 0)  -->
<svg version="1.1" id="Capa_1" xmlns="http://www.w3.org/2000/svg" xmlns:xlink="http://www.w3.org/1999/xlink" x="0px" y="0px"
	 viewBox="0 0 321 296" style="enable-background:new 0 0 321 296;" xml:space="preserve">
<g>
	<path d="M328.3,142c-0.2,99.1-74.4,170.7-161.3,173.7c-44.6,1.5-84.1-12.1-117.6-41.6C14,242.9-5.3,203.3-7.5,156
		C-9.8,106.9,6.5,64.5,41,29.5c31.6-32,70.4-48.4,115.3-49.6C200.8-21.2,239.4-6,273,22.9C308.9,56.8,327.6,98.3,328.3,142z
		 M55.8,267.5c0.3,0.2,0.6,0.3,0.8,0.5c4.5,3.9,9.2,7.5,14.2,10.9c10.8,7.4,22.4,13.4,34.7,17.9c14.5,5.4,29.5,8.4,45,9.5
		c5.6,0.4,11.2,0.4,16.8,0.1c7.4-0.4,14.6-1.1,21.9-2.5c16.7-3.1,32.5-8.7,47.3-16.9c14.8-8.2,28-18.4,39.6-30.8
		c5.9-6.3,11.2-13,16-20.1c5.4-8.1,10.1-16.6,13.9-25.6c3-6.9,5.5-14,7.4-21.3c1.9-7.1,3.3-14.3,4.2-21.7c0.7-5.5,1.2-11.1,1.2-16.7
		c0-5.3,0-10.5-0.6-15.8c-0.4-4-0.7-8.1-1.3-12.1c-2.4-15.7-7.2-30.6-14.1-44.8c-5.8-11.9-13-22.8-21.6-32.9
		c-6.3-7.4-13.2-14.2-20.8-20.4c-11.6-9.4-24.3-17.1-38.1-23c-19.6-8.4-40.1-12.4-61.3-12.7c-4.8-0.1-9.6,0.2-14.4,0.6
		c-6.3,0.5-12.5,1.4-18.7,2.7C105-2.7,84.3,6.7,65.5,20.6c-12.2,9.1-22.9,19.7-32,31.9c-10.3,13.7-18.3,28.7-23.7,45
		c-3,8.9-5.2,18-6.5,27.2c-1,7-1.7,14-1.6,21.1c0,3.7,0,7.4,0.2,11.1c0.3,4.5,0.7,9.1,1.3,13.6c1.2,8.1,3,16.1,5.4,24
		c4.2,13.9,10.4,26.9,18.2,39.1c2.5,3.9,5.1,7.7,8,11.3c3.8,4.7,7.6,9.4,11.8,13.6c2,1.9,3.9,3.9,5.8,5.8c-2.8-0.6-2.9-0.5-3.3,2.2
		c0,0.2,0,0.3,0,0.5c-0.1,1.4,1.2,2.2,2.5,1.6c1-0.5,2.1-0.8,3.2-0.7C55.1,268,55.7,268.2,55.8,267.5z M43.9,259.8
		c-0.7-0.8-0.7-1.6-0.8-2.5c-0.1-0.8,0.1-1.7-0.5-2.4c-1-1.2-2.1-2.3-3.1-3.5c-0.2-0.2-0.5-0.5-0.8-0.2c-0.7,0.7-1.6,1.3-1.8,2.6
		c-0.3,1.8,0.1,3.6-0.4,5.4c-0.1,0.5,0.2,0.7,0.6,0.7C39.2,260.1,41.4,260.2,43.9,259.8z M30.2,253.8c0.5-1.1,0.5-2.1,0.3-3.1
		c-0.4-1.6-1.5-2.4-3-2.2c-0.6,0.1-1,0.3-0.5,0.9C28,250.9,29.1,252.4,30.2,253.8z M27,235.1c-0.1-0.2-0.2-0.6-0.4-0.9
		c-1-1.5-1.5-3.3-2.9-4.6c-0.3-0.3-0.3-1.1-1-0.7c-0.6,0.4-1,0.9-0.6,1.7c0.3,0.7,0.8,1.2,1.5,1.5c1.3,0.8,2.2,1.7,2.4,3.2
		c0,0.3,0.2,0.7,0.6,0.6C27.1,236,27,235.6,27,235.1z M122,302.3c-1.7-0.5-3.4-0.9-5.1-1.4c-0.7-0.2-0.7,0.4-0.8,0.8
		c-0.2,0.5-0.1,0.9,0.4,1c0.7,0.2,1.5,0.3,2.2,0.6C120.2,303.9,120.9,303.7,122,302.3z M32.6,244.2c0,0,0.4,0,0.5-0.2
		c0.3-0.3-0.1-0.6-0.3-0.8c-0.5-0.7-1-1.4-1.5-2.1c-0.2-0.3-0.5-0.7-0.8-0.6c-0.5,0.2-0.1,0.6,0,0.9c0.1,0.5,0.2,0.9,0.2,1.4
		C30.9,243.8,31.5,244.2,32.6,244.2z M30.9,48.3c-0.4,0.9-1.5,1.6-1.1,2.3c0.6,0.9,1.1,1.8,2.1,2.8C32.1,51.4,31.6,50,30.9,48.3z"/>
	<path d="M305.7,145.6c0,17.8-3.8,36.6-11.6,54.6c-0.7,1.6-0.9,1.7-2,0.2c-5.5-7.5-11.7-14.4-18.5-20.7
		c-11.5-10.7-24.3-19.5-38.5-26.2c-13.5-6.4-27.5-10.7-42.3-13c-7.4-1.1-14.7-1.8-22.2-1.9c-0.9,0-1.2-0.2-1.3-1.2
		c-0.4-6-0.1-12.1,0.2-18.1c0.3-4.6,0.7-9.2,1.4-13.7c0.9-5.9,2.2-11.7,4-17.4c3.9-12.4,9.4-24,16.3-35c4.2-6.7,9.1-12.9,14.4-18.8
		c3.4-3.7,7-7.3,10.8-10.6c2.8-2.4,5.8-4.6,8.7-6.9c0.4-0.3,0.8-0.5,1.3-0.1c3.7,2.5,8,3.9,11.8,6.1c6.3,3.6,12,8,17.5,12.8
		c4.4,3.8,8.7,7.8,12.6,12.2c5.4,6,10.3,12.3,14.7,19.1c5.2,8.2,9.6,16.8,13.1,25.8c3.5,9,6,18.2,7.5,27.7
		C305.1,128.2,305.7,136,305.7,145.6z"/>
</g>
</svg>
