<?xml version="1.0" encoding="utf-8"?>
<!-- Generator: Adobe Illustrator 19.2.1, SVG Export Plug-In . SVG Version: 6.00 Build 0)  -->
<svg version="1.1" id="Capa_7_xA0_Imagen_1_" xmlns="http://www.w3.org/2000/svg" xmlns:xlink="http://www.w3.org/1999/xlink"
	 x="0px" y="0px" viewBox="0 0 184.3 159.1" style="enable-background:new 0 0 184.3 159.1;" xml:space="preserve">
<style type="text/css">
	.st0{fill:url(#SVGID_1_);}
</style>
<g>
	<linearGradient id="SVGID_1_" gradientUnits="userSpaceOnUse" x1="91.464" y1="1.2242" x2="94.5434" y2="158.2716">
		<stop  offset="0" style="stop-color:#8F7B62"/>
		<stop  offset="0.9995" style="stop-color:#403833"/>
	</linearGradient>
	<path class="st0" d="M0.2,97.7c0-5.5,0-11,0-16.6c0.3,0,0.6,0.1,0.8,0.1c14.8,0,29.7,0,44.5,0c0.3,0,0.7-0.1,1.2-0.1
		c-0.9-1.5-1.7-2.9-2.5-4.3c-4.5-7.8-8.9-15.7-13.4-23.5c-4.7-8.2-9.4-16.3-14.1-24.5C11.9,20.5,7.2,12.2,2.5,4
		C1.8,2.8,1,1.7,0.2,0.5c0-0.1,0.1-0.2,0.1-0.2c0.3,0,0.6,0,1,0c61.1,0,122.2,0,183.2,0c-2.2,3.8-4.5,7.7-6.7,11.5
		c-2.7,4.6-5.4,9.3-8.1,13.9c-2,3.4-4,6.9-6,10.3c-2.4,4.2-4.9,8.4-7.3,12.6c-2.6,4.4-5.2,8.9-7.8,13.3c-2.7,4.6-5.4,9.2-8,13.8
		c-1,1.8-2,3.5-3.2,5.5c15.9,0,31.5,0,47,0c0,5.5,0,10.9,0,16.4c-18.9,0-37.8,0-56.6,0c-12,20.6-24,41.1-36,61.8
		c-0.3-0.5-0.6-0.8-0.8-1.2c-3.2-5.6-6.4-11.2-9.6-16.8c-4.5-7.8-9-15.5-13.4-23.3c-3.7-6.4-7.4-12.8-11-19.2
		c-0.5-0.9-1.1-1.3-2.1-1.3c-17.8,0-35.5,0-53.3,0C1.1,97.6,0.7,97.7,0.2,97.7z M146.4,22.4c-36.5,0-72.7,0-109,0
		c0.8,1.4,1.6,2.7,2.4,4C46.8,38.5,53.9,50.6,61,62.6c3.3,5.6,6.8,11.1,9.9,16.8c0.8,1.5,1.7,1.8,3.2,1.8c12-0.1,23.9-0.1,35.9,0
		c1.2,0,1.9-0.4,2.5-1.4c4-6.8,8-13.6,12-20.3c6.1-10.3,12.2-20.6,18.3-30.9C143.9,26.6,145.1,24.7,146.4,22.4z M81.6,97.7
		c3.4,5.7,6.6,11.3,9.9,16.9c3.4-5.7,6.7-11.2,10.1-16.9C94.9,97.7,88.4,97.7,81.6,97.7z"/>
</g>
</svg>
