<?xml version="1.0" encoding="utf-8"?>
<!-- Generator: Adobe Illustrator 19.2.1, SVG Export Plug-In . SVG Version: 6.00 Build 0)  -->
<svg version="1.1" id="Capa_1" xmlns="http://www.w3.org/2000/svg" xmlns:xlink="http://www.w3.org/1999/xlink" x="0px" y="0px"
	 viewBox="0 0 321 296" style="enable-background:new 0 0 321 296;" xml:space="preserve">
<g>
	<path d="M158.6-19.8c46,0.5,84.4,15,116.3,44.9c37.5,35.1,55.5,78.8,53.7,130c-1.5,42.3-17.2,79.1-46.6,109.5
		c-34.4,35.6-76.7,52.8-126.1,51.6c-41.1-1-77.3-15.6-107.7-43.2C14.5,242.3-4.1,204-6.8,158.6C-9.7,110.6,5.4,68.4,38.4,33.3
		C71.5-1.9,112.7-19,158.6-19.8z M166.9-10.4C73.1-10.2,1.8,60.6,2.2,149.2c0.2,42.2,15.3,78.9,44.6,109.2
		c30.8,31.8,68.8,48.3,113.1,48.4c48.3,0.2,89-18.4,120.8-54.9c27.8-31.9,40.7-69.5,38.5-111.8c-2.2-42.8-19.3-79.1-50.7-108.2
		C238.2,3.9,202-9.8,166.9-10.4z M3.9,204.1c1,0.2,1.4-0.3,1.3-1.3c-0.1-1,0.1-2.1,0.3-3.1c0.3-1.5,0.8-2,2.5-2.1
		c0.5,0,1.2,0.1,1.3-0.5c0.2-0.6-0.1-1.2-0.5-1.7c-0.3-0.4-0.7-0.5-1.1-0.6c-0.9-0.4-1.8-0.8-2.2-1.8c-0.3-0.8-0.9-1.1-1.8-1.3
		c-0.6-0.1-1.2-0.3-1.9-0.5c-0.9-0.2-1.4-0.8-1.6-1.7c-0.3-1.4-0.5-2.8-0.6-4.3c0-0.4,0.2-1.1-0.4-1.2c-0.5-0.1-1,0.2-1.3,0.7
		c-0.3,0.4-0.6,0.8-0.4,1.4c0.3,1.3,0.6,2.6,0.9,3.8c0.2,0.9,0.4,1.9,1.2,2.6c0.6,0.6,1,1.1,0.3,1.9c-0.3,0.3-0.1,0.8,0.1,1.1
		c0.8,2.5,1.6,4.9,2.4,7.4C2.6,203.9,3,204.2,3.9,204.1z M280.5,259.5c1-0.2,2.2-0.1,2.8-0.9c1.3-1.9,3.1-3.1,4.6-4.7
		c0.1-0.1,0.2-0.2,0.2-0.3c0.6-1.2,1.4-1.9,2.6-2.5c1.4-0.7,1.7-1.9,0.8-2.9c-1.4-1.6-3.5-1.4-4.8,0.4c-1.6,2.2-4.1,3.5-5.5,5.9
		c-0.1,0.2-0.4,0.3-0.6,0.4c-0.7,0.3-1.1,0.9-1.6,1.4c-0.5,0.5-0.7,1.2-0.4,1.9C279,258.9,279.6,259.5,280.5,259.5z M1.8,149.5
		c0-1.1,0-2.2,0-3.2c0-0.6-0.1-1-0.7-1.2c-0.9-0.3-1.9-0.3-2.8,0c-0.8,0.3-1.1,0.8-0.5,1.6c0.5,0.7,1.1,1.2,2,1.5
		c0.5,0.2,1,0.4,1.3,1c0.8,1.5,0.4,2.3-1.3,2.8c-1,0.3-2,0.7-2.2,1.9c-0.1,0.9,1.5,2.1,2.6,2c1.2-0.1,2-0.9,1.8-2.1
		C1.7,152.4,1.8,150.9,1.8,149.5z M300.5,235.6c1.5,0,2.7-0.5,3.3-1.5c0.3-0.4,0.4-0.8,0.1-1.2c-1-1.8-3.4-2.2-4.8-0.7
		c-0.6,0.6-1.1,1.2-0.7,2.1C298.8,235.1,299.5,235.7,300.5,235.6z M272.8,267.5c0.1,0,0.5-0.1,0.8-0.1c1.7-0.3,2.7-1.4,2.5-2.5
		c-0.2-1.2-1.9-2-3.4-1.6c-0.1,0-0.2,0.1-0.3,0.1c-1,0.4-2,1.6-1.8,2.4C270.7,266.8,271.6,267.5,272.8,267.5z M20.7,238.4
		c1.5,0.8,1.9,1.4,1.4,2.9c-0.3,1,0.2,1.6,0.8,2.2c0.6,0.5,1.3,0.2,1.8-0.1c0.7-0.5,1.2-1.1,1.1-2.1c-0.1-0.6-0.2-1.2-0.2-1.8
		c0-0.7-0.1-1.2-1.1-1.1c-0.4,0.1-1,0-1.3-0.3C22.3,237.1,21.6,237.8,20.7,238.4z M37.1,38c0.1,0,0.3-0.1,0.4-0.2
		c1.6-1.4,3.1-2.9,4.4-4.6c0.4-0.5,0.1-0.9-0.4-1.3c-0.5-0.4-0.9-0.5-1.4,0c-1.3,1.4-2.8,2.7-4,4.3c-0.2,0.3-0.8,0.5-0.5,1
		C36,37.6,36.5,37.9,37.1,38z M43.6,263.6c1-0.1,1.4-0.6,1.4-1.5c0-0.9-0.2-1.9,0.7-2.6c0.2-0.1,0.6-0.2,0.5-0.6
		c-0.1-0.4-0.5-0.3-0.8-0.3c-1.2,0.4-2.3,0.9-3.1,1.9c-0.5,0.6-0.5,1.3-0.1,2C42.5,263.2,43,263.5,43.6,263.6z M117.2-13.7
		c-2.2,0.6-4.6,1.4-7,2.1c-0.2,0.1-0.4,0.2-0.3,0.5c0.2,0.3,0.5,0.3,0.7,0.2c1.4-0.4,2.9-0.4,4.4-0.5c1-0.1,1.8-0.6,2.7-1
		c0.3-0.1,0.6-0.4,0.5-0.9C118.1-13.6,117.8-13.7,117.2-13.7z M-6.7,149.1c0,2.2,0,4.1,0,6.2C-5.3,154.1-5.2,150.5-6.7,149.1z
		 M85.1,7.1C85.2,7.5,85,8,85.5,8c0.5,0,0.9-0.2,1-0.7c0.1-1.1,0.2-2.2,0.3-3.3c0-0.5-0.3-0.7-0.8-0.7c-0.6,0-0.6,0.4-0.6,0.8
		C85.3,5.1,85.3,6.1,85.1,7.1z M302,71.9c0,0.8,0.3,1.3,1.1,1.3c0.7,0,1.5-0.9,1.4-1.6c-0.1-0.7-0.6-1.2-1.3-1.2
		C302.4,70.5,302.1,71.2,302,71.9z M289.9,41.5c-0.1,1.5-0.3,2.7,0.9,3.6c0.4,0.3,0.8,0.3,1.2-0.1c0.4-0.3,0.4-0.7,0.1-1
		C291.4,43.2,290.9,42.4,289.9,41.5z M307.3,81.2c0.7-0.2,1.2-0.6,1.1-1.3c-0.1-0.7-0.5-1.3-1.3-1.4c-0.7,0-1.2,0.5-1.2,1.2
		C306,80.5,306.5,81,307.3,81.2z"/>
	<path d="M19.3,148.3c-0.2-12.7,1.3-24.5,4.3-36.1c2-7.9,4.7-15.5,8-22.9c5.1-11.3,11.5-21.8,19.4-31.4c3.4-4.1,6.9-8.1,10.7-11.8
		c5.7-5.5,11.8-10.6,18.3-15.2c6.8-4.8,14-8.9,21.6-12.4c10.6-5,21.7-8.5,33.2-10.6c3.5-0.6,7.1-1.1,10.6-1.7c1.1-0.2,1.4,0.2,1,1.2
		c-0.7,1.6-1.3,3.3-2.2,4.8c-0.4,0.7-0.8,1.4-1,2.1c-2.8,8.2-5.5,16.3-7.1,24.8c-0.9,4.9-1.7,9.8-2.1,14.8
		c-0.4,4.9-0.8,9.9-0.7,14.8c0.2,4.9,0.4,9.9,0.9,14.8c0.6,7.1,1.9,14,3.7,20.8c2.3,9.1,5.6,17.9,9.6,26.4c2.4,5.1,5,10.1,7.9,15
		c0.5,0.9,0.5,1.6-0.4,2.2c-5.4,4-10.9,7.8-16.7,11.2c-8.9,5.1-18.2,9.2-27.9,12.3c-7.3,2.4-14.8,4.1-22.4,5.2
		c-4.1,0.6-8.2,1-12.3,0.9c-6.9-0.2-13.7-1-20.4-2.2c-11.4-2.1-22.5-5.2-33.6-8.5c-0.7-0.2-1.1-0.5-1.2-1.4
		C19.5,159.5,19,153.5,19.3,148.3z M118.5,156.6c-0.3,0-0.4,0.2-0.5,0.4c-0.4,1,0.2,2.5,1.3,3.5c1,0.8,1.5-0.1,2.2-0.4
		c0.2-0.1,0.3-0.2,0.5-0.4c0.7-0.6,0.6-2.1-0.3-2.3C120.6,157.1,119.4,157.6,118.5,156.6z M44.7,144.8
		C44.7,144.8,44.7,144.8,44.7,144.8c0-0.1,0-0.2,0-0.4c-0.1-0.6,0.3-1.3-0.4-1.6c-0.7-0.3-1,0.5-1.4,0.9c-1.2,1.2-1.2,1.4,0.5,2.3
		c0.4,0.2,0.7,0.7,1.2,0.4c0.4-0.2,0.1-0.7,0.2-1.1C44.8,145.1,44.7,145,44.7,144.8z M62.9,175.7c1.2,0,2.3,0.7,3.5,0.3
		c0.4-0.1,0.8-0.2,0.9-0.7c0.1-0.5-0.3-0.5-0.6-0.8c-0.9-0.9-1.7,0.3-2.5,0.1C63.5,174.5,63,175,62.9,175.7z"/>
	<path d="M303.8,147c0.2,13.3-1.6,25.8-4.9,38.1c-1.7,6.5-4,12.9-6.7,19.1c-0.5,1.2-0.9,1.2-1.7,0.1c-5.4-7.3-11.5-14.1-18.2-20.3
		c-5.2-4.9-10.8-9.4-16.7-13.6c-6.1-4.4-12.6-8.2-19.3-11.6c-9.5-4.8-19.5-8.6-29.8-11.3c-5.6-1.5-11.3-2.7-17-3.5
		c-4.3-0.6-8.5-1.1-12.8-1.3c-2.7-0.2-5.4-0.1-8-0.2c-0.8,0-1.1-0.3-1.2-1.1c-0.4-5.3-0.2-10.6,0.1-15.9c0.5-9.2,1.7-18.2,3.9-27.2
		c1.9-7.8,4.7-15.3,8-22.6c3.6-8,7.8-15.7,12.8-22.9c3.2-4.6,6.7-9,10.5-13.2c2.9-3.2,6-6.2,9-9.3c2.1-2.2,4.7-4,7.1-5.8
		c1.5-1.2,3-2.5,4.5-3.7c0.7-0.6,1.3-0.7,2.2-0.2c9.2,4.6,17.8,10.2,25.8,16.7c5.4,4.4,10.5,9.2,15.2,14.3
		c7.2,7.8,13.4,16.3,18.7,25.6c4.7,8.2,8.6,16.8,11.5,25.8c2.6,7.9,4.6,16,5.7,24.3C303.3,133.8,304,140.6,303.8,147z M270.5,137.2
		c-1,0-1.5,0.5-1.7,1.4c-0.2,0.7,1,1.7,2,1.7c0.9,0,1.8-0.7,1.8-1.4C272.7,138.1,271.6,137.2,270.5,137.2z"/>
	<path d="M161,289.9c-4.8,0.2-10.1-0.2-15.3-0.7c-9.1-1-17.9-2.9-26.6-5.5c-8.3-2.6-16.2-5.9-23.8-9.9c-7.9-4.2-15.4-9.1-22.4-14.6
		c-4-3.2-7.9-6.6-11.5-10.2c-4.1-4.1-8-8.4-11.6-12.9c-0.7-1-0.5-1.3,1-1.6c5.5-0.9,10.9-1.9,16.3-3.1c7.7-1.7,15.3-3.7,22.7-6.2
		c10.5-3.6,20-8.8,28.8-15.5c7-5.4,13.5-11.3,19.5-17.7c6.8-7.2,12.8-15.1,18-23.5c2.6-4.1,4.9-8.4,7.2-12.7
		c0.6-1.2,1.3-0.9,2.1-0.5c4.4,2.4,8.6,4.9,12.7,7.6c4.8,3.2,9.6,6.5,14,10.3c4.8,4.1,9.3,8.4,13.5,13.1
		c8.6,9.8,15.7,20.6,21.5,32.3c4.8,9.7,8.1,19.9,10.6,30.4c1,4.4,1.1,8.9,2.1,13.3c0.1,0.6,0.1,1.3,0.3,1.9c0.6,1.7-0.1,2.7-1.6,3.6
		c-10.4,6.6-21.4,11.8-33.1,15.6c-8.2,2.6-16.5,4.5-25.1,5.6C174,289.5,167.7,290,161,289.9z M137.4,280.8c-0.3-0.6-0.3-1.5-1.4-1.6
		c-0.6,0-1.3-0.2-1.9-0.3c-0.3,0-0.7-0.1-0.8,0.3c-0.1,0.5,0.4,0.4,0.7,0.5c1.2,0,1.6,0.7,1.7,1.8c0,0.3,0,0.6,0.1,1
		c0,0.3,0.2,0.5,0.5,0.6c0.3,0,0.6-0.1,0.7-0.4C137.1,282,137.2,281.5,137.4,280.8z"/>
</g>
</svg>
