<?xml version="1.0" encoding="utf-8"?>
<!-- Generator: Adobe Illustrator 19.2.1, SVG Export Plug-In . SVG Version: 6.00 Build 0)  -->
<svg version="1.1" id="Capa_1" xmlns="http://www.w3.org/2000/svg" xmlns:xlink="http://www.w3.org/1999/xlink" x="0px" y="0px"
	 viewBox="0 0 321 296" style="enable-background:new 0 0 321 296;" xml:space="preserve">
<g>
	<g>
		<path d="M-7.9,156.7C-7.9,55.9,67-18.9,159.2-19.4c93.5-0.5,170.6,75.3,169,171c-0.7,43.2-16,81-45.8,112.3
			c-33.7,35.5-75.6,53.3-124.5,52.7c-45.7-0.6-85-17.4-117.2-49.9C8.4,234-7.2,194.3-7.9,156.7z M86.3,8c-0.2,0.4-0.6,0.6-1,0.8
			c-1.5,0.8-3,1.6-4.5,2.5c-14.1,8.3-26.7,18.3-37.8,30.4C37.3,48.1,32,54.9,27.3,62.1C19.2,74.4,13,87.6,8.6,101.6
			c-4,13-6.4,26.2-7,39.8c-0.3,6.7-0.2,13.5,0.4,20.2c0.6,7.5,1.8,15,3.4,22.4c2.5,10.9,6.1,21.4,10.8,31.5
			c4.1,8.9,9.1,17.2,14.7,25.2c3.8,5.3,7.8,10.5,12.3,15.2c4,4.3,8.2,8.4,12.6,12.3c4.8,4.1,9.7,8,14.9,11.5
			c7.8,5.3,16.1,9.9,24.7,13.8c8.3,3.7,17,6.7,25.8,8.9c6.4,1.6,12.9,2.8,19.5,3.6c4.5,0.6,8.9,1,13.4,1.1c7,0.2,14,0.1,20.9-0.6
			c4.4-0.5,8.9-1,13.2-1.8c11-2.1,21.7-5.1,32-9.4c9.3-3.9,18.2-8.5,26.6-14c8.1-5.3,15.7-11.3,22.7-18.1c2.6-2.5,5.1-5,7.6-7.7
			c2.9-3.3,5.8-6.6,8.5-10c5.3-6.8,10-14,14-21.6c4.3-8,7.9-16.2,10.8-24.8c2.5-7.6,4.5-15.3,5.8-23.1c1.2-6.8,2-13.7,2.3-20.6
			c0.3-7.3,0.2-14.6-0.6-21.9c-0.5-4.9-1.1-9.7-2-14.5c-1.8-9.1-4.3-18-7.6-26.7c-4-10.3-8.8-20.2-14.9-29.4
			c-3.3-5-6.7-9.9-10.5-14.5c-3.4-4.2-7-8.2-10.8-11.9c-2.5-2.5-5.2-5-7.9-7.3c-4.4-3.8-9-7.4-13.7-10.7C243,13.1,235,8.5,226.6,4.6
			c-4.5-2.1-9.1-4-13.8-5.6c-7.8-2.7-15.7-4.8-23.7-6.3c-7.2-1.3-14.4-2.2-21.6-2.5c-5.6-0.2-11.2-0.2-16.8,0.1
			c-6.7,0.4-13.4,1.2-20.1,2.5C119.1-5,107.9-1.7,97.2,3.1c-2.4,1-4.8,2.1-7.1,3.1c0.7-0.8,1.9-1.1,2.8-1.6c0.5-0.3,1-0.6,0.8-1.3
			c-0.2-0.7-0.7-1-1.5-1c-1.1,0-1.8,0.6-2.1,1.5c-0.4,1.3-1.3,2-2.5,2.4C86.8,6.5,86.1,7,86.3,8z M-2.5,167.1c0,2.6-0.4,3.2-2.7,3.8
			c-0.3,0.1-0.6,0.1-0.8,0.5c-0.2,0.9,0.5,2.2,1.4,2.4c1,0.3,2-0.3,2.3-1.2c0.3-0.8,0.2-1.6,0.2-2.4c0.1-1.7,0.7-2.4,2.4-2.6
			c0.6-0.1,1.6,0.1,1.7-0.6c0.1-0.7-0.8-1.1-1.4-1.5c-0.2-0.1-0.5-0.2-0.8-0.3c-0.5-0.2-1-0.5-1.1-1c-0.3-0.9-0.9-1.2-1.8-1.3
			c-0.5,0-1-0.2-1.5-0.2c-0.5-0.1-1.3-0.4-1.4,0.3c-0.1,0.7,0.7,0.6,1.2,0.6c1.4,0.2,2,1,2.2,2.3C-2.6,166.4-2.5,166.9-2.5,167.1z
			 M303.6,70.9C303.6,70.9,303.6,70.9,303.6,70.9c-0.9,0-1.8,0-2.8,0c-1.1,0-1.4,0.5-0.9,1.4c0.7,1.3,1.7,2.3,2.4,3.7
			c0.4,0.8,1.2,0.6,1.6-0.5c0.5-1.4,1.4-2.3,2.8-2.8c0.5-0.2,1-0.4,0.9-1c-0.1-0.6-0.6-0.9-1.2-0.9
			C305.4,70.9,304.5,70.9,303.6,70.9z M3,194.5c-0.9-0.1-1.4,0.3-1.6,1.1c-0.1,0.4-0.3,0.9-0.7,1.1c-1,0.5-1,1.2-0.6,2.1
			c0.2,0.5,0.3,1,0.4,1.5c0.1,0.3,0.1,0.9,0.6,1c0.4,0,0.7-0.4,0.8-0.8c0.5-1.3,1.4-2.3,2.8-2.8c0.6-0.2,1-0.7,1.4-1.3
			c0.4-0.7,0.4-1.2-0.5-1.4C4.7,194.8,3.8,194.7,3,194.5z M286.2,49.7C286.2,49.7,286.2,49.7,286.2,49.7c0,0.5,0,1,0,1.4
			c0.1,0.9,0.6,1.7,1.6,1.8c0.9,0.1,1.8,0,2.7,0c0.6,0,1.1-0.3,1.2-0.9c0.1-0.6-0.4-0.8-0.9-1c-0.6-0.3-1.2-0.5-1.7-0.9
			c-0.6-0.5-1-1.2-1.2-2c-0.2-0.5-0.5-1-1.1-0.9c-0.5,0.1-0.7,0.6-0.7,1.1C286.2,48.8,286.2,49.2,286.2,49.7z M273.8,270.6
			c0.7,0,1.3-0.1,1.8-0.5c1.3-1,2.3-2.2,3.5-3.3c0.2-0.2,0.3-0.5,0.1-0.7c-0.6-0.8-1.4-1-2.3-1c-0.9,0.1-0.6,0.9-0.8,1.4
			c-0.1,0.2-0.1,0.4-0.1,0.6c-0.3,1.9-0.7,2.2-2.6,2.4c-0.4,0-1.1-0.1-1.1,0.4c0,0.5,0.6,0.5,1,0.7
			C273.4,270.6,273.6,270.6,273.8,270.6z M-2.4,187.7c0.5-0.6,0.4-0.9,0.4-1.2c0.1-2.3,0.7-2.8,2.9-3c0.2,0,0.3,0,0.5,0
			c0.8-0.1,0.9-0.5,0.4-1.1c-0.6-0.6-1.2-1.2-2.1-1c-1.1,0.3-1.8,0.9-2,2C-2.7,184.7-2.6,186.1-2.4,187.7z M75.7,9.2
			c1.6,0,2.1-0.3,2.1-1.3c0-1-0.8-1.8-1.9-1.8c-1.2,0-1.8,0.6-1.9,1.8C74,9.3,75,9.2,75.7,9.2z M265.8,277.4
			c0.7,0.4,1.1,0.5,1.6,0.1c1-0.8,2-1.7,3-2.5c0.3-0.3,0.8-0.5,0.6-1c-0.2-0.5-0.7-0.8-1.3-0.9c-1-0.1-1.5,0.1-1.6,1.2
			C267.9,275.6,268,277.3,265.8,277.4z M3.7,177c-0.4-0.6,0.3-2-1.1-2.1c-0.5,0-1.1,0-1.1,0.8c0,0.6,1.4,2.1,1.9,2.2
			C4,177.8,3.7,177.4,3.7,177z"/>
		<path d="M165.7,137.2c-0.2-14.5,1.7-28.8,5.9-42.7c1.9-6.4,4.6-12.6,7.5-18.7c4.3-9.1,9.4-17.8,15.6-25.8
			c4.9-6.3,10.4-12.1,16.1-17.5c2.7-2.6,6-4.4,8.7-7c0.7-0.6,1.4-1.1,2.1-1.8c0.7-0.7,1.4-0.7,2.3-0.2c6.2,3.2,12.2,6.7,17.9,10.8
			c7.4,5.2,14.3,11.1,20.5,17.6c8.8,9.1,16.2,19.2,22.3,30.3c4.3,7.9,7.9,16.2,10.7,24.7c2.6,7.9,4.4,15.9,5.5,24.2
			c1,7.6,1.5,15.3,1.3,22.9c-0.4,16.3-3.4,32.1-9.2,47.3c-0.8,2.1-1.7,4.2-2.5,6.2c-0.4,0.9-0.7,1-1.4,0.2c-2.3-3.1-4.7-6.2-7.3-9.1
			c-3.4-3.9-7-7.7-10.8-11.2c-4.8-4.4-9.7-8.6-14.9-12.4c-9.8-7.2-20.3-13.1-31.6-17.8c-10.8-4.5-22-7.7-33.5-9.6
			c-7.7-1.3-15.5-2-23.4-2.1c-1.7,0-1.8,0-1.9-1.8C165.7,141.6,165.7,139.4,165.7,137.2z M264.1,171.7c-0.6,0-1.3,0-1.4,0.8
			c-0.1,1.1-0.3,2.3,0,3.5c0.2,0.8,0.7,1.6,1.6,1.5c0.8,0,1.2-0.8,1.4-1.6c0.1-0.3,0-0.6,0-0.8c0-0.7-0.2-1.3-0.2-2
			C265.6,172.1,265.1,171.7,264.1,171.7z M202.9,78c0-1.6-0.2-1.8-1.3-1.8c-1.2,0-1.1,0.7-1.1,1.5c0,1.5,0.3,1.7,1.6,1.7
			C203.4,79.4,202.8,78.5,202.9,78z M219,47.4c0-1.1,0-1.8-1-1.7c-0.7,0.1-1.5,0-1.7,0.9c-0.1,0.7,1.2,1.9,1.9,1.9
			C219,48.4,219,47.7,219,47.4z M219,70.8c-0.2-0.5,0.3-1.3-0.7-1.4c-0.7,0-1.3,0.3-1.2,1.1c0.1,0.7-0.1,1.7,1,1.7
			C219.1,72.3,219,71.5,219,70.8z"/>
		<path d="M160.5,293c-13.2,0.2-25.4-1.5-37.4-4.6c-14.2-3.8-27.5-9.6-39.9-17.5c-7.1-4.6-13.8-9.7-20-15.4
			c-5.4-4.9-10.3-10.3-15-16c-0.1-0.2-0.2-0.3-0.3-0.5c-0.8-1-0.7-1.2,0.5-1.4c4.2-0.8,8.3-1.5,12.5-2.3c12-2.4,23.7-5.5,35-10.2
			c8-3.4,15.2-8.1,22.1-13.4c5.4-4.2,10.5-8.7,15.2-13.5c8.8-9,16.4-18.9,22.8-29.7c1.9-3.2,3.7-6.5,5.3-9.8c0.4-0.9,0.8-1,1.7-0.6
			c10,5.4,19.4,11.6,28.1,19c8.1,6.9,15.2,14.8,21.4,23.5c4.6,6.6,8.9,13.4,12.4,20.6c5.2,10.6,8.9,21.7,11.3,33.3
			c1,4.6,1.2,9.4,2.1,14.1c0.1,0.7-0.3,1-0.8,1.3c-3.2,2.2-6.5,4.1-9.8,6c-7.7,4.2-15.7,7.6-24,10.3c-8.8,2.9-17.9,4.9-27.1,5.9
			C171.1,292.7,165.5,293.1,160.5,293z M120.5,224.3c0.1,0,0.3-0.1,0.4-0.1c0-0.8,0.1-1.6,0.1-2.3c0-0.6,0.3-1,0.9-1
			c1.3,0.1,1.6-0.6,1.5-1.7c-0.1-0.5,0-1.4-0.7-1.3c-1.2,0.1-2.3-1.3-3.4-0.2c-0.8,0.8-1.1,2.1-0.5,3
			C119.6,221.9,120.3,223,120.5,224.3z M161.9,276.6c0.1,0,0.4,0,0.7-0.1c1.1-0.2,1.3-1.1,1.4-1.9c0.1-0.8-0.8-0.4-1.2-0.5
			c-0.6-0.2-1.3-0.3-2-0.5c-0.3-0.1-0.6-0.2-0.8,0.2C159.4,275.3,160.2,276.6,161.9,276.6z"/>
	</g>
</g>
</svg>
