<?xml version="1.0" encoding="utf-8"?>
<!-- Generator: Adobe Illustrator 19.2.1, SVG Export Plug-In . SVG Version: 6.00 Build 0)  -->
<svg version="1.1" xmlns="http://www.w3.org/2000/svg" xmlns:xlink="http://www.w3.org/1999/xlink" x="0px" y="0px"
	 viewBox="0 0 184.3 159.1" style="enable-background:new 0 0 184.3 159.1;" xml:space="preserve">
<style type="text/css">
	.st0{fill:url(#SVGID_1_);}
</style>
<g id="Capa_0_xA0_Imagen_1_">
</g>
<g id="Capa_7_xA0_Imagen_1_">
	<g>
		<linearGradient id="SVGID_1_" gradientUnits="userSpaceOnUse" x1="92.384" y1="2.3458" x2="91.6425" y2="156.952">
			<stop  offset="0" style="stop-color:#96E0CB"/>
			<stop  offset="1" style="stop-color:#528892"/>
		</linearGradient>
		<path class="st0" d="M184.6,0.2c-1.6,3.2-3.5,6.2-5.3,9.2c-4.7,8.1-9.4,16.1-14,24.1c-3.6,6.2-7.3,12.5-10.9,18.7
			c-4.4,7.6-8.8,15.2-13.3,22.8c-5.8,9.9-11.6,19.8-17.3,29.7c-6.3,10.9-12.7,21.8-19,32.7c-4.1,7-8.1,13.9-12.2,20.9
			c-0.6,1.1-0.8,1.1-1.4,0c-2.3-3.9-4.5-7.9-6.8-11.8c-3.2-5.6-6.4-11.2-9.7-16.8c-3.5-6.1-7-12.2-10.5-18.3
			C60.5,105.3,57,99.1,53.5,93c-3.5-6.1-7-12.2-10.5-18.3c-3.5-6.1-7-12.3-10.6-18.4c-3.9-6.8-7.8-13.5-11.6-20.3
			c-3.4-6-6.9-12-10.3-18C7.2,12.5,4,6.8,0.7,1.2C0.6,0.9,0.4,0.7,0.2,0.5c0.1-0.1-0.1-0.3,0.1-0.2c0.3,0,0.6,0,1,0
			C62.4,0.2,123.5,0.2,184.6,0.2z M91.7,114.3c0.9-1.5,1.6-2.8,2.4-4.1c6-10.1,12.1-20.2,18.1-30.3c7.5-12.6,14.9-25.2,22.4-37.8
			c3.6-6.1,7.3-12.2,10.9-18.4c0.7-1.2,0.7-1.2-0.7-1.2c-10.2-0.1-20.5-0.1-30.7-0.2c-24.9-0.2-49.8-0.1-74.6-0.1c-0.3,0-0.6,0-1,0
			c-0.8,0-0.8,0.3-0.5,0.9c0.5,0.9,1,1.7,1.5,2.6C48.4,41,57.3,56.1,66.2,71.3c7.4,12.5,14.7,25.1,22.1,37.6
			C89.4,110.7,90.3,112.5,91.7,114.3z"/>
	</g>
</g>
</svg>
